<mxfile host="app.diagrams.net" agent="Mozilla/5.0 (Windows NT 10.0; Win64; x64) AppleWebKit/537.36 (KHTML, like Gecko) Chrome/130.0.0.0 Safari/537.36" version="24.8.4">
  <diagram name="Página-1" id="fHq5Il7rkgxkkeVJPvbZ">
    <mxGraphModel dx="1257" dy="1895" grid="1" gridSize="10" guides="1" tooltips="1" connect="1" arrows="1" fold="1" page="1" pageScale="1" pageWidth="827" pageHeight="1169" math="0" shadow="0">
      <root>
        <mxCell id="0" />
        <mxCell id="1" parent="0" />
        <mxCell id="5nmSyV8fs2mh4pmYHU-O-1" value="&lt;h1 style=&quot;margin-top: 0px;&quot;&gt;&lt;span style=&quot;font-size: 12px; font-weight: 400;&quot;&gt;Relación entre usuarios&lt;/span&gt;&lt;/h1&gt;&lt;div&gt;&lt;ol&gt;&lt;li&gt;&lt;span style=&quot;font-size: 12px; font-weight: 400;&quot;&gt;Un usuario tiene un perfil base&lt;/span&gt;&lt;/li&gt;&lt;li&gt;Un usuario puede tener un perfil de profesor o de alumno&lt;/li&gt;&lt;li&gt;Un usuario con perfil de Alumno tiene una Cuenta de puntos&lt;/li&gt;&lt;li&gt;Un usuario con perfil de Profesor puede crear una Incidencia&lt;/li&gt;&lt;li&gt;Un administrador crea un grupo&lt;/li&gt;&lt;li&gt;Un Alumno puede tener muchas incidencias&lt;/li&gt;&lt;li&gt;Una incidencia esta asociada con un alumno, con el profesor que lo crea, con la cuenta del alumno y con el tipo de incidencia&lt;/li&gt;&lt;li&gt;Un Profesor puede crear muchos tipos de incidencias&lt;/li&gt;&lt;li&gt;Muchas incidencias pueden tener el mismo tipo de incidencia&lt;/li&gt;&lt;li&gt;Un administrador da de alta a un usuario creando un Rol específico para ese usuario&lt;/li&gt;&lt;/ol&gt;&lt;/div&gt;" style="text;html=1;whiteSpace=wrap;overflow=hidden;rounded=0;" parent="1" vertex="1">
          <mxGeometry x="60" y="60" width="390" height="250" as="geometry" />
        </mxCell>
        <mxCell id="5nmSyV8fs2mh4pmYHU-O-5" style="edgeStyle=orthogonalEdgeStyle;rounded=0;orthogonalLoop=1;jettySize=auto;html=1;exitX=1;exitY=0.5;exitDx=0;exitDy=0;entryX=0;entryY=0.5;entryDx=0;entryDy=0;" parent="1" source="5nmSyV8fs2mh4pmYHU-O-3" target="5nmSyV8fs2mh4pmYHU-O-6" edge="1">
          <mxGeometry relative="1" as="geometry">
            <mxPoint x="520" y="530" as="targetPoint" />
          </mxGeometry>
        </mxCell>
        <mxCell id="5nmSyV8fs2mh4pmYHU-O-261" style="edgeStyle=orthogonalEdgeStyle;rounded=0;orthogonalLoop=1;jettySize=auto;html=1;exitX=0.75;exitY=1;exitDx=0;exitDy=0;entryX=0;entryY=0.5;entryDx=0;entryDy=0;" parent="1" source="5nmSyV8fs2mh4pmYHU-O-3" target="5nmSyV8fs2mh4pmYHU-O-260" edge="1">
          <mxGeometry relative="1" as="geometry">
            <Array as="points">
              <mxPoint x="460" y="560" />
              <mxPoint x="460" y="760" />
            </Array>
          </mxGeometry>
        </mxCell>
        <mxCell id="5nmSyV8fs2mh4pmYHU-O-3" value="USER" style="whiteSpace=wrap;html=1;" parent="1" vertex="1">
          <mxGeometry x="340" y="500" width="120" height="60" as="geometry" />
        </mxCell>
        <mxCell id="5nmSyV8fs2mh4pmYHU-O-8" style="edgeStyle=orthogonalEdgeStyle;rounded=0;orthogonalLoop=1;jettySize=auto;html=1;entryX=0;entryY=0.5;entryDx=0;entryDy=0;" parent="1" source="5nmSyV8fs2mh4pmYHU-O-6" target="5nmSyV8fs2mh4pmYHU-O-7" edge="1">
          <mxGeometry relative="1" as="geometry" />
        </mxCell>
        <mxCell id="5nmSyV8fs2mh4pmYHU-O-6" value="TIENE" style="rhombus;whiteSpace=wrap;html=1;" parent="1" vertex="1">
          <mxGeometry x="530" y="490" width="80" height="80" as="geometry" />
        </mxCell>
        <mxCell id="5nmSyV8fs2mh4pmYHU-O-7" value="PROFILE" style="whiteSpace=wrap;html=1;" parent="1" vertex="1">
          <mxGeometry x="700" y="500" width="120" height="60" as="geometry" />
        </mxCell>
        <mxCell id="5nmSyV8fs2mh4pmYHU-O-9" value="(1,1)" style="text;html=1;align=center;verticalAlign=middle;resizable=0;points=[];autosize=1;strokeColor=none;fillColor=none;" parent="1" vertex="1">
          <mxGeometry x="460" y="500" width="50" height="30" as="geometry" />
        </mxCell>
        <mxCell id="5nmSyV8fs2mh4pmYHU-O-10" value="(1:1)" style="text;html=1;align=center;verticalAlign=middle;resizable=0;points=[];autosize=1;strokeColor=none;fillColor=none;" parent="1" vertex="1">
          <mxGeometry x="650" y="500" width="50" height="30" as="geometry" />
        </mxCell>
        <mxCell id="5nmSyV8fs2mh4pmYHU-O-20" style="rounded=0;orthogonalLoop=1;jettySize=auto;html=1;exitX=0.5;exitY=1;exitDx=0;exitDy=0;entryX=0;entryY=0;entryDx=0;entryDy=0;" parent="1" source="5nmSyV8fs2mh4pmYHU-O-12" target="5nmSyV8fs2mh4pmYHU-O-3" edge="1">
          <mxGeometry relative="1" as="geometry" />
        </mxCell>
        <mxCell id="5nmSyV8fs2mh4pmYHU-O-12" value="USERNAME" style="ellipse;whiteSpace=wrap;html=1;" parent="1" vertex="1">
          <mxGeometry x="250" y="440" width="90" height="30" as="geometry" />
        </mxCell>
        <mxCell id="5nmSyV8fs2mh4pmYHU-O-22" style="edgeStyle=orthogonalEdgeStyle;rounded=0;orthogonalLoop=1;jettySize=auto;html=1;entryX=0.5;entryY=0;entryDx=0;entryDy=0;" parent="1" source="5nmSyV8fs2mh4pmYHU-O-13" target="5nmSyV8fs2mh4pmYHU-O-3" edge="1">
          <mxGeometry relative="1" as="geometry" />
        </mxCell>
        <mxCell id="5nmSyV8fs2mh4pmYHU-O-13" value="PASSWORD" style="ellipse;whiteSpace=wrap;html=1;" parent="1" vertex="1">
          <mxGeometry x="350" y="430" width="100" height="30" as="geometry" />
        </mxCell>
        <mxCell id="5nmSyV8fs2mh4pmYHU-O-32" style="edgeStyle=orthogonalEdgeStyle;rounded=0;orthogonalLoop=1;jettySize=auto;html=1;exitX=0.5;exitY=1;exitDx=0;exitDy=0;entryX=0.25;entryY=0;entryDx=0;entryDy=0;" parent="1" source="5nmSyV8fs2mh4pmYHU-O-23" target="5nmSyV8fs2mh4pmYHU-O-7" edge="1">
          <mxGeometry relative="1" as="geometry" />
        </mxCell>
        <mxCell id="5nmSyV8fs2mh4pmYHU-O-23" value="FULLNAME" style="ellipse;whiteSpace=wrap;html=1;" parent="1" vertex="1">
          <mxGeometry x="680" y="430" width="100" height="30" as="geometry" />
        </mxCell>
        <mxCell id="5nmSyV8fs2mh4pmYHU-O-25" value="AVATAR&lt;span style=&quot;color: rgba(0, 0, 0, 0); font-family: monospace; font-size: 0px; text-align: start; text-wrap-mode: nowrap;&quot;&gt;%3CmxGraphModel%3E%3Croot%3E%3CmxCell%20id%3D%220%22%2F%3E%3CmxCell%20id%3D%221%22%20parent%3D%220%22%2F%3E%3CmxCell%20id%3D%222%22%20value%3D%22FULLNAME%22%20style%3D%22ellipse%3BwhiteSpace%3Dwrap%3Bhtml%3D1%3B%22%20vertex%3D%221%22%20parent%3D%221%22%3E%3CmxGeometry%20x%3D%221320%22%20y%3D%22110%22%20width%3D%22100%22%20height%3D%2230%22%20as%3D%22geometry%22%2F%3E%3C%2FmxCell%3E%3C%2Froot%3E%3C%2FmxGraphModel%3E&lt;/span&gt;" style="ellipse;whiteSpace=wrap;html=1;" parent="1" vertex="1">
          <mxGeometry x="780" y="450" width="100" height="30" as="geometry" />
        </mxCell>
        <mxCell id="5nmSyV8fs2mh4pmYHU-O-33" style="rounded=0;orthogonalLoop=1;jettySize=auto;html=1;entryX=1;entryY=0.25;entryDx=0;entryDy=0;" parent="1" source="5nmSyV8fs2mh4pmYHU-O-30" target="5nmSyV8fs2mh4pmYHU-O-7" edge="1">
          <mxGeometry relative="1" as="geometry">
            <mxPoint x="830" y="520" as="targetPoint" />
          </mxGeometry>
        </mxCell>
        <mxCell id="5nmSyV8fs2mh4pmYHU-O-30" value="EMAIL" style="ellipse;whiteSpace=wrap;html=1;" parent="1" vertex="1">
          <mxGeometry x="850" y="490" width="100" height="30" as="geometry" />
        </mxCell>
        <mxCell id="5nmSyV8fs2mh4pmYHU-O-31" style="rounded=0;orthogonalLoop=1;jettySize=auto;html=1;exitX=0;exitY=0.5;exitDx=0;exitDy=0;entryX=0.675;entryY=-0.017;entryDx=0;entryDy=0;entryPerimeter=0;" parent="1" source="5nmSyV8fs2mh4pmYHU-O-25" target="5nmSyV8fs2mh4pmYHU-O-7" edge="1">
          <mxGeometry relative="1" as="geometry" />
        </mxCell>
        <mxCell id="5nmSyV8fs2mh4pmYHU-O-34" value="1:1" style="text;html=1;align=center;verticalAlign=middle;resizable=0;points=[];autosize=1;strokeColor=none;fillColor=none;" parent="1" vertex="1">
          <mxGeometry x="550" y="458" width="40" height="30" as="geometry" />
        </mxCell>
        <mxCell id="5nmSyV8fs2mh4pmYHU-O-227" style="rounded=0;orthogonalLoop=1;jettySize=auto;html=1;exitX=1;exitY=0;exitDx=0;exitDy=0;" parent="1" source="5nmSyV8fs2mh4pmYHU-O-46" target="5nmSyV8fs2mh4pmYHU-O-225" edge="1">
          <mxGeometry relative="1" as="geometry">
            <Array as="points">
              <mxPoint x="1100" y="560" />
            </Array>
          </mxGeometry>
        </mxCell>
        <mxCell id="h6sf5w2JTI2KtMpbFyoY-28" style="edgeStyle=orthogonalEdgeStyle;rounded=0;orthogonalLoop=1;jettySize=auto;html=1;exitX=1;exitY=1;exitDx=0;exitDy=0;entryX=0.5;entryY=0;entryDx=0;entryDy=0;" parent="1" source="5nmSyV8fs2mh4pmYHU-O-46" target="h6sf5w2JTI2KtMpbFyoY-27" edge="1">
          <mxGeometry relative="1" as="geometry" />
        </mxCell>
        <mxCell id="h6sf5w2JTI2KtMpbFyoY-43" style="edgeStyle=orthogonalEdgeStyle;rounded=0;orthogonalLoop=1;jettySize=auto;html=1;entryX=1;entryY=0.5;entryDx=0;entryDy=0;" parent="1" source="5nmSyV8fs2mh4pmYHU-O-46" target="h6sf5w2JTI2KtMpbFyoY-40" edge="1">
          <mxGeometry relative="1" as="geometry" />
        </mxCell>
        <mxCell id="5nmSyV8fs2mh4pmYHU-O-46" value="ALUMNO_PROFILE" style="whiteSpace=wrap;html=1;" parent="1" vertex="1">
          <mxGeometry x="700" y="640" width="120" height="60" as="geometry" />
        </mxCell>
        <mxCell id="h6sf5w2JTI2KtMpbFyoY-24" style="edgeStyle=orthogonalEdgeStyle;rounded=0;orthogonalLoop=1;jettySize=auto;html=1;exitX=1;exitY=0.5;exitDx=0;exitDy=0;entryX=0;entryY=0.5;entryDx=0;entryDy=0;" parent="1" source="5nmSyV8fs2mh4pmYHU-O-47" target="h6sf5w2JTI2KtMpbFyoY-23" edge="1">
          <mxGeometry relative="1" as="geometry" />
        </mxCell>
        <mxCell id="h6sf5w2JTI2KtMpbFyoY-52" style="edgeStyle=orthogonalEdgeStyle;rounded=0;orthogonalLoop=1;jettySize=auto;html=1;entryX=1;entryY=0.5;entryDx=0;entryDy=0;" parent="1" source="5nmSyV8fs2mh4pmYHU-O-47" target="h6sf5w2JTI2KtMpbFyoY-47" edge="1">
          <mxGeometry relative="1" as="geometry" />
        </mxCell>
        <mxCell id="HAJWOKTtWnyAJJbQ7NxA-2" style="rounded=0;orthogonalLoop=1;jettySize=auto;html=1;exitX=1;exitY=0.25;exitDx=0;exitDy=0;" edge="1" parent="1" source="5nmSyV8fs2mh4pmYHU-O-47" target="HAJWOKTtWnyAJJbQ7NxA-1">
          <mxGeometry relative="1" as="geometry" />
        </mxCell>
        <mxCell id="5nmSyV8fs2mh4pmYHU-O-47" value="PROFESOR_PROFILE" style="whiteSpace=wrap;html=1;" parent="1" vertex="1">
          <mxGeometry x="700" y="870" width="140" height="60" as="geometry" />
        </mxCell>
        <mxCell id="5nmSyV8fs2mh4pmYHU-O-224" style="rounded=0;orthogonalLoop=1;jettySize=auto;html=1;entryX=0;entryY=0.25;entryDx=0;entryDy=0;" parent="1" source="5nmSyV8fs2mh4pmYHU-O-60" target="5nmSyV8fs2mh4pmYHU-O-46" edge="1">
          <mxGeometry relative="1" as="geometry" />
        </mxCell>
        <mxCell id="5nmSyV8fs2mh4pmYHU-O-60" value="fk_USER&lt;span style=&quot;color: rgba(0, 0, 0, 0); font-family: monospace; font-size: 0px; text-align: start; text-wrap-mode: nowrap;&quot;&gt;%3CmxGraphModel%3E%3Croot%3E%3CmxCell%20id%3D%220%22%2F%3E%3CmxCell%20id%3D%221%22%20parent%3D%220%22%2F%3E%3CmxCell%20id%3D%222%22%20value%3D%22CREATED%20AT%22%20style%3D%22ellipse%3BwhiteSpace%3Dwrap%3Bhtml%3D1%3B%22%20vertex%3D%221%22%20parent%3D%221%22%3E%3CmxGeometry%20x%3D%22-220%22%20y%3D%22440%22%20width%3D%22100%22%20height%3D%2230%22%20as%3D%22geometry%22%2F%3E%3C%2FmxCell%3E%3C%2Froot%3E%3C%2FmxGraphModel%3E&lt;/span&gt;" style="ellipse;whiteSpace=wrap;html=1;" parent="1" vertex="1">
          <mxGeometry x="585" y="600" width="80" height="30" as="geometry" />
        </mxCell>
        <mxCell id="5nmSyV8fs2mh4pmYHU-O-63" style="rounded=0;orthogonalLoop=1;jettySize=auto;html=1;" parent="1" source="5nmSyV8fs2mh4pmYHU-O-61" target="5nmSyV8fs2mh4pmYHU-O-47" edge="1">
          <mxGeometry relative="1" as="geometry" />
        </mxCell>
        <mxCell id="5nmSyV8fs2mh4pmYHU-O-61" value="fk_USER&lt;span style=&quot;color: rgba(0, 0, 0, 0); font-family: monospace; font-size: 0px; text-align: start; text-wrap-mode: nowrap;&quot;&gt;%3CmxGraphModel%3E%3Croot%3E%3CmxCell%20id%3D%220%22%2F%3E%3CmxCell%20id%3D%221%22%20parent%3D%220%22%2F%3E%3CmxCell%20id%3D%222%22%20value%3D%22CREATED%20AT%22%20style%3D%22ellipse%3BwhiteSpace%3Dwrap%3Bhtml%3D1%3B%22%20vertex%3D%221%22%20parent%3D%221%22%3E%3CmxGeometry%20x%3D%22-220%22%20y%3D%22440%22%20width%3D%22100%22%20height%3D%2230%22%20as%3D%22geometry%22%2F%3E%3C%2FmxCell%3E%3C%2Froot%3E%3C%2FmxGraphModel%3E&lt;/span&gt;" style="ellipse;whiteSpace=wrap;html=1;" parent="1" vertex="1">
          <mxGeometry x="650" y="820" width="80" height="30" as="geometry" />
        </mxCell>
        <mxCell id="5nmSyV8fs2mh4pmYHU-O-66" value="" style="rounded=0;orthogonalLoop=1;jettySize=auto;html=1;" parent="1" source="5nmSyV8fs2mh4pmYHU-O-64" target="5nmSyV8fs2mh4pmYHU-O-46" edge="1">
          <mxGeometry relative="1" as="geometry" />
        </mxCell>
        <mxCell id="5nmSyV8fs2mh4pmYHU-O-64" value="REPETIDOR?" style="ellipse;whiteSpace=wrap;html=1;" parent="1" vertex="1">
          <mxGeometry x="870" y="670" width="90" height="30" as="geometry" />
        </mxCell>
        <mxCell id="5nmSyV8fs2mh4pmYHU-O-68" value="" style="rounded=0;orthogonalLoop=1;jettySize=auto;html=1;" parent="1" source="5nmSyV8fs2mh4pmYHU-O-67" target="5nmSyV8fs2mh4pmYHU-O-46" edge="1">
          <mxGeometry relative="1" as="geometry" />
        </mxCell>
        <mxCell id="5nmSyV8fs2mh4pmYHU-O-67" value="edad" style="ellipse;whiteSpace=wrap;html=1;dashed=1;" parent="1" vertex="1">
          <mxGeometry x="790" y="585" width="80" height="30" as="geometry" />
        </mxCell>
        <mxCell id="5nmSyV8fs2mh4pmYHU-O-69" value="FECHA_NACIMIENTO" style="ellipse;whiteSpace=wrap;html=1;" parent="1" vertex="1">
          <mxGeometry x="650" y="575" width="120" height="40" as="geometry" />
        </mxCell>
        <mxCell id="5nmSyV8fs2mh4pmYHU-O-72" style="rounded=0;orthogonalLoop=1;jettySize=auto;html=1;entryX=0.166;entryY=0.047;entryDx=0;entryDy=0;entryPerimeter=0;" parent="1" source="5nmSyV8fs2mh4pmYHU-O-69" target="5nmSyV8fs2mh4pmYHU-O-46" edge="1">
          <mxGeometry relative="1" as="geometry" />
        </mxCell>
        <mxCell id="h6sf5w2JTI2KtMpbFyoY-20" style="edgeStyle=orthogonalEdgeStyle;rounded=0;orthogonalLoop=1;jettySize=auto;html=1;exitX=0.5;exitY=1;exitDx=0;exitDy=0;entryX=0.5;entryY=0;entryDx=0;entryDy=0;" parent="1" source="5nmSyV8fs2mh4pmYHU-O-74" target="h6sf5w2JTI2KtMpbFyoY-19" edge="1">
          <mxGeometry relative="1" as="geometry" />
        </mxCell>
        <mxCell id="h6sf5w2JTI2KtMpbFyoY-50" style="edgeStyle=orthogonalEdgeStyle;rounded=0;orthogonalLoop=1;jettySize=auto;html=1;entryX=1;entryY=0.5;entryDx=0;entryDy=0;" parent="1" source="5nmSyV8fs2mh4pmYHU-O-74" target="h6sf5w2JTI2KtMpbFyoY-49" edge="1">
          <mxGeometry relative="1" as="geometry" />
        </mxCell>
        <mxCell id="5nmSyV8fs2mh4pmYHU-O-74" value="ADMIN_PROFILE" style="rounded=1;whiteSpace=wrap;html=1;" parent="1" vertex="1">
          <mxGeometry x="710" y="990" width="120" height="60" as="geometry" />
        </mxCell>
        <mxCell id="5nmSyV8fs2mh4pmYHU-O-76" value="" style="rounded=0;orthogonalLoop=1;jettySize=auto;html=1;" parent="1" source="5nmSyV8fs2mh4pmYHU-O-75" target="5nmSyV8fs2mh4pmYHU-O-74" edge="1">
          <mxGeometry relative="1" as="geometry" />
        </mxCell>
        <mxCell id="5nmSyV8fs2mh4pmYHU-O-75" value="fk_USER" style="ellipse;whiteSpace=wrap;html=1;" parent="1" vertex="1">
          <mxGeometry x="610" y="955" width="80" height="30" as="geometry" />
        </mxCell>
        <mxCell id="5nmSyV8fs2mh4pmYHU-O-87" style="edgeStyle=orthogonalEdgeStyle;rounded=0;orthogonalLoop=1;jettySize=auto;html=1;" parent="1" source="5nmSyV8fs2mh4pmYHU-O-81" edge="1">
          <mxGeometry relative="1" as="geometry">
            <mxPoint x="1190" y="660" as="targetPoint" />
          </mxGeometry>
        </mxCell>
        <mxCell id="5nmSyV8fs2mh4pmYHU-O-81" value="GRUPO" style="rounded=1;whiteSpace=wrap;html=1;" parent="1" vertex="1">
          <mxGeometry x="1340" y="630" width="120" height="60" as="geometry" />
        </mxCell>
        <mxCell id="5nmSyV8fs2mh4pmYHU-O-83" value="" style="rounded=0;orthogonalLoop=1;jettySize=auto;html=1;" parent="1" source="5nmSyV8fs2mh4pmYHU-O-82" target="5nmSyV8fs2mh4pmYHU-O-81" edge="1">
          <mxGeometry relative="1" as="geometry" />
        </mxCell>
        <mxCell id="5nmSyV8fs2mh4pmYHU-O-82" value="NOMBRE" style="ellipse;whiteSpace=wrap;html=1;" parent="1" vertex="1">
          <mxGeometry x="1480" y="586.5" width="70" height="27" as="geometry" />
        </mxCell>
        <mxCell id="5nmSyV8fs2mh4pmYHU-O-84" value="TIENE" style="rhombus;whiteSpace=wrap;html=1;" parent="1" vertex="1">
          <mxGeometry x="1110" y="620" width="80" height="80" as="geometry" />
        </mxCell>
        <mxCell id="5nmSyV8fs2mh4pmYHU-O-89" style="edgeStyle=orthogonalEdgeStyle;rounded=0;orthogonalLoop=1;jettySize=auto;html=1;entryX=0.981;entryY=0.331;entryDx=0;entryDy=0;entryPerimeter=0;" parent="1" source="5nmSyV8fs2mh4pmYHU-O-84" target="5nmSyV8fs2mh4pmYHU-O-46" edge="1">
          <mxGeometry relative="1" as="geometry" />
        </mxCell>
        <mxCell id="5nmSyV8fs2mh4pmYHU-O-90" value="(1:1)" style="text;html=1;align=center;verticalAlign=middle;resizable=0;points=[];autosize=1;strokeColor=none;fillColor=none;" parent="1" vertex="1">
          <mxGeometry x="940" y="630" width="50" height="30" as="geometry" />
        </mxCell>
        <mxCell id="5nmSyV8fs2mh4pmYHU-O-91" value="(1:n)" style="text;html=1;align=center;verticalAlign=middle;resizable=0;points=[];autosize=1;strokeColor=none;fillColor=none;" parent="1" vertex="1">
          <mxGeometry x="1285" y="628" width="50" height="30" as="geometry" />
        </mxCell>
        <mxCell id="5nmSyV8fs2mh4pmYHU-O-92" value="n:1" style="text;html=1;align=center;verticalAlign=middle;resizable=0;points=[];autosize=1;strokeColor=none;fillColor=none;" parent="1" vertex="1">
          <mxGeometry x="1130" y="585" width="40" height="30" as="geometry" />
        </mxCell>
        <mxCell id="5nmSyV8fs2mh4pmYHU-O-100" value="" style="edgeStyle=orthogonalEdgeStyle;rounded=0;orthogonalLoop=1;jettySize=auto;html=1;" parent="1" source="5nmSyV8fs2mh4pmYHU-O-95" target="5nmSyV8fs2mh4pmYHU-O-99" edge="1">
          <mxGeometry relative="1" as="geometry" />
        </mxCell>
        <mxCell id="5nmSyV8fs2mh4pmYHU-O-111" value="" style="edgeStyle=orthogonalEdgeStyle;rounded=0;orthogonalLoop=1;jettySize=auto;html=1;" parent="1" source="5nmSyV8fs2mh4pmYHU-O-95" target="5nmSyV8fs2mh4pmYHU-O-110" edge="1">
          <mxGeometry relative="1" as="geometry" />
        </mxCell>
        <mxCell id="5nmSyV8fs2mh4pmYHU-O-95" value="CUENTA DE PUNTOS" style="rounded=0;whiteSpace=wrap;html=1;" parent="1" vertex="1">
          <mxGeometry x="1340" y="870" width="150" height="60" as="geometry" />
        </mxCell>
        <mxCell id="5nmSyV8fs2mh4pmYHU-O-98" value="" style="rounded=0;orthogonalLoop=1;jettySize=auto;html=1;" parent="1" source="5nmSyV8fs2mh4pmYHU-O-97" target="5nmSyV8fs2mh4pmYHU-O-95" edge="1">
          <mxGeometry relative="1" as="geometry" />
        </mxCell>
        <mxCell id="5nmSyV8fs2mh4pmYHU-O-97" value="CANTIDAD" style="ellipse;whiteSpace=wrap;html=1;" parent="1" vertex="1">
          <mxGeometry x="1450" y="960" width="80" height="20" as="geometry" />
        </mxCell>
        <mxCell id="5nmSyV8fs2mh4pmYHU-O-102" style="rounded=0;orthogonalLoop=1;jettySize=auto;html=1;entryX=0;entryY=0.5;entryDx=0;entryDy=0;exitX=0.576;exitY=1.013;exitDx=0;exitDy=0;exitPerimeter=0;" parent="1" source="5nmSyV8fs2mh4pmYHU-O-46" target="5nmSyV8fs2mh4pmYHU-O-99" edge="1">
          <mxGeometry relative="1" as="geometry">
            <mxPoint x="760" y="730" as="targetPoint" />
          </mxGeometry>
        </mxCell>
        <mxCell id="5nmSyV8fs2mh4pmYHU-O-99" value="TIENE" style="rhombus;whiteSpace=wrap;html=1;" parent="1" vertex="1">
          <mxGeometry x="1150" y="850" width="80" height="80" as="geometry" />
        </mxCell>
        <mxCell id="5nmSyV8fs2mh4pmYHU-O-104" value="(1:1)" style="text;html=1;align=center;verticalAlign=middle;resizable=0;points=[];autosize=1;strokeColor=none;fillColor=none;" parent="1" vertex="1">
          <mxGeometry x="1285" y="870" width="50" height="30" as="geometry" />
        </mxCell>
        <mxCell id="5nmSyV8fs2mh4pmYHU-O-105" value="1:1" style="text;html=1;align=center;verticalAlign=middle;resizable=0;points=[];autosize=1;strokeColor=none;fillColor=none;" parent="1" vertex="1">
          <mxGeometry x="1170" y="818" width="40" height="30" as="geometry" />
        </mxCell>
        <mxCell id="5nmSyV8fs2mh4pmYHU-O-106" style="edgeStyle=orthogonalEdgeStyle;rounded=0;orthogonalLoop=1;jettySize=auto;html=1;exitX=0.5;exitY=1;exitDx=0;exitDy=0;" parent="1" edge="1">
          <mxGeometry relative="1" as="geometry">
            <mxPoint x="930" y="770" as="sourcePoint" />
            <mxPoint x="930" y="770" as="targetPoint" />
          </mxGeometry>
        </mxCell>
        <mxCell id="5nmSyV8fs2mh4pmYHU-O-108" value="" style="rounded=0;orthogonalLoop=1;jettySize=auto;html=1;entryX=0;entryY=0.75;entryDx=0;entryDy=0;" parent="1" source="5nmSyV8fs2mh4pmYHU-O-107" target="5nmSyV8fs2mh4pmYHU-O-46" edge="1">
          <mxGeometry relative="1" as="geometry" />
        </mxCell>
        <mxCell id="5nmSyV8fs2mh4pmYHU-O-107" value="fk_CUENTA_PUNTOS" style="ellipse;whiteSpace=wrap;html=1;" parent="1" vertex="1">
          <mxGeometry x="530" y="670" width="150" height="30" as="geometry" />
        </mxCell>
        <mxCell id="5nmSyV8fs2mh4pmYHU-O-112" value="" style="edgeStyle=orthogonalEdgeStyle;rounded=0;orthogonalLoop=1;jettySize=auto;html=1;" parent="1" source="5nmSyV8fs2mh4pmYHU-O-110" target="5nmSyV8fs2mh4pmYHU-O-81" edge="1">
          <mxGeometry relative="1" as="geometry" />
        </mxCell>
        <mxCell id="5nmSyV8fs2mh4pmYHU-O-110" value="TIENE" style="rhombus;whiteSpace=wrap;html=1;" parent="1" vertex="1">
          <mxGeometry x="1360" y="750" width="80" height="80" as="geometry" />
        </mxCell>
        <mxCell id="5nmSyV8fs2mh4pmYHU-O-114" value="(1:1)" style="text;html=1;align=center;verticalAlign=middle;resizable=0;points=[];autosize=1;strokeColor=none;fillColor=none;" parent="1" vertex="1">
          <mxGeometry x="1415" y="838" width="50" height="30" as="geometry" />
        </mxCell>
        <mxCell id="5nmSyV8fs2mh4pmYHU-O-115" value="(1:1)" style="text;html=1;align=center;verticalAlign=middle;resizable=0;points=[];autosize=1;strokeColor=none;fillColor=none;" parent="1" vertex="1">
          <mxGeometry x="1415" y="690" width="50" height="30" as="geometry" />
        </mxCell>
        <mxCell id="5nmSyV8fs2mh4pmYHU-O-116" value="1:1" style="text;html=1;align=center;verticalAlign=middle;resizable=0;points=[];autosize=1;strokeColor=none;fillColor=none;" parent="1" vertex="1">
          <mxGeometry x="1440" y="775" width="40" height="30" as="geometry" />
        </mxCell>
        <mxCell id="5nmSyV8fs2mh4pmYHU-O-241" style="edgeStyle=orthogonalEdgeStyle;rounded=0;orthogonalLoop=1;jettySize=auto;html=1;" parent="1" source="5nmSyV8fs2mh4pmYHU-O-128" target="5nmSyV8fs2mh4pmYHU-O-232" edge="1">
          <mxGeometry relative="1" as="geometry" />
        </mxCell>
        <mxCell id="5nmSyV8fs2mh4pmYHU-O-248" style="edgeStyle=orthogonalEdgeStyle;rounded=0;orthogonalLoop=1;jettySize=auto;html=1;exitX=1;exitY=0.5;exitDx=0;exitDy=0;entryX=0;entryY=0.5;entryDx=0;entryDy=0;" parent="1" source="5nmSyV8fs2mh4pmYHU-O-128" target="5nmSyV8fs2mh4pmYHU-O-247" edge="1">
          <mxGeometry relative="1" as="geometry" />
        </mxCell>
        <mxCell id="5nmSyV8fs2mh4pmYHU-O-128" value="INCIDENCIA" style="whiteSpace=wrap;html=1;" parent="1" vertex="1">
          <mxGeometry x="1070" y="200" width="120" height="60" as="geometry" />
        </mxCell>
        <mxCell id="5nmSyV8fs2mh4pmYHU-O-129" value="TIPO_INCIDENCIA" style="whiteSpace=wrap;html=1;" parent="1" vertex="1">
          <mxGeometry x="1070" y="30" width="120" height="60" as="geometry" />
        </mxCell>
        <mxCell id="5nmSyV8fs2mh4pmYHU-O-130" value="" style="rounded=0;orthogonalLoop=1;jettySize=auto;html=1;" parent="1" source="5nmSyV8fs2mh4pmYHU-O-131" target="5nmSyV8fs2mh4pmYHU-O-129" edge="1">
          <mxGeometry relative="1" as="geometry" />
        </mxCell>
        <mxCell id="5nmSyV8fs2mh4pmYHU-O-131" value="DESCRIPCIÓN" style="ellipse;whiteSpace=wrap;html=1;" parent="1" vertex="1">
          <mxGeometry x="1100" y="-30" width="100" height="30" as="geometry" />
        </mxCell>
        <mxCell id="5nmSyV8fs2mh4pmYHU-O-132" value="" style="edgeStyle=orthogonalEdgeStyle;rounded=0;orthogonalLoop=1;jettySize=auto;html=1;" parent="1" source="5nmSyV8fs2mh4pmYHU-O-133" target="5nmSyV8fs2mh4pmYHU-O-129" edge="1">
          <mxGeometry relative="1" as="geometry" />
        </mxCell>
        <mxCell id="5nmSyV8fs2mh4pmYHU-O-133" value="CANTIDAD PUNTOS" style="ellipse;whiteSpace=wrap;html=1;" parent="1" vertex="1">
          <mxGeometry x="1240" y="45" width="120" height="30" as="geometry" />
        </mxCell>
        <mxCell id="5nmSyV8fs2mh4pmYHU-O-208" value="" style="edgeStyle=orthogonalEdgeStyle;rounded=0;orthogonalLoop=1;jettySize=auto;html=1;" parent="1" source="5nmSyV8fs2mh4pmYHU-O-200" target="5nmSyV8fs2mh4pmYHU-O-129" edge="1">
          <mxGeometry relative="1" as="geometry" />
        </mxCell>
        <mxCell id="5nmSyV8fs2mh4pmYHU-O-200" value="CREA" style="rhombus;whiteSpace=wrap;html=1;" parent="1" vertex="1">
          <mxGeometry x="880" y="10" width="80" height="80" as="geometry" />
        </mxCell>
        <mxCell id="5nmSyV8fs2mh4pmYHU-O-209" value="" style="edgeStyle=orthogonalEdgeStyle;rounded=0;orthogonalLoop=1;jettySize=auto;html=1;" parent="1" source="5nmSyV8fs2mh4pmYHU-O-201" target="5nmSyV8fs2mh4pmYHU-O-128" edge="1">
          <mxGeometry relative="1" as="geometry" />
        </mxCell>
        <mxCell id="5nmSyV8fs2mh4pmYHU-O-201" value="CREA" style="rhombus;whiteSpace=wrap;html=1;" parent="1" vertex="1">
          <mxGeometry x="880" y="190" width="80" height="80" as="geometry" />
        </mxCell>
        <mxCell id="5nmSyV8fs2mh4pmYHU-O-204" style="rounded=0;orthogonalLoop=1;jettySize=auto;html=1;entryX=0;entryY=0.5;entryDx=0;entryDy=0;exitX=0.656;exitY=-0.004;exitDx=0;exitDy=0;exitPerimeter=0;" parent="1" source="5nmSyV8fs2mh4pmYHU-O-3" target="5nmSyV8fs2mh4pmYHU-O-200" edge="1">
          <mxGeometry relative="1" as="geometry" />
        </mxCell>
        <mxCell id="5nmSyV8fs2mh4pmYHU-O-205" style="rounded=0;orthogonalLoop=1;jettySize=auto;html=1;entryX=0;entryY=0.5;entryDx=0;entryDy=0;exitX=0.75;exitY=0;exitDx=0;exitDy=0;" parent="1" source="5nmSyV8fs2mh4pmYHU-O-3" target="5nmSyV8fs2mh4pmYHU-O-201" edge="1">
          <mxGeometry relative="1" as="geometry" />
        </mxCell>
        <mxCell id="5nmSyV8fs2mh4pmYHU-O-206" value="(1:n)" style="text;html=1;align=center;verticalAlign=middle;resizable=0;points=[];autosize=1;strokeColor=none;fillColor=none;" parent="1" vertex="1">
          <mxGeometry x="450" y="388" width="50" height="30" as="geometry" />
        </mxCell>
        <mxCell id="5nmSyV8fs2mh4pmYHU-O-207" value="(1:n)" style="text;html=1;align=center;verticalAlign=middle;resizable=0;points=[];autosize=1;strokeColor=none;fillColor=none;" parent="1" vertex="1">
          <mxGeometry x="475" y="428" width="50" height="30" as="geometry" />
        </mxCell>
        <mxCell id="5nmSyV8fs2mh4pmYHU-O-210" value="1:n" style="text;html=1;align=center;verticalAlign=middle;resizable=0;points=[];autosize=1;strokeColor=none;fillColor=none;" parent="1" vertex="1">
          <mxGeometry x="900" y="-32" width="40" height="30" as="geometry" />
        </mxCell>
        <mxCell id="5nmSyV8fs2mh4pmYHU-O-211" value="(1:1)" style="text;html=1;align=center;verticalAlign=middle;resizable=0;points=[];autosize=1;strokeColor=none;fillColor=none;" parent="1" vertex="1">
          <mxGeometry x="1020" y="28" width="50" height="30" as="geometry" />
        </mxCell>
        <mxCell id="5nmSyV8fs2mh4pmYHU-O-212" value="(1:1)" style="text;html=1;align=center;verticalAlign=middle;resizable=0;points=[];autosize=1;strokeColor=none;fillColor=none;" parent="1" vertex="1">
          <mxGeometry x="1020" y="200" width="50" height="30" as="geometry" />
        </mxCell>
        <mxCell id="5nmSyV8fs2mh4pmYHU-O-213" value="1:n" style="text;html=1;align=center;verticalAlign=middle;resizable=0;points=[];autosize=1;strokeColor=none;fillColor=none;" parent="1" vertex="1">
          <mxGeometry x="900" y="160" width="40" height="30" as="geometry" />
        </mxCell>
        <mxCell id="5nmSyV8fs2mh4pmYHU-O-216" value="" style="rounded=0;orthogonalLoop=1;jettySize=auto;html=1;" parent="1" source="5nmSyV8fs2mh4pmYHU-O-214" target="5nmSyV8fs2mh4pmYHU-O-128" edge="1">
          <mxGeometry relative="1" as="geometry" />
        </mxCell>
        <mxCell id="5nmSyV8fs2mh4pmYHU-O-214" value="fk_USER" style="ellipse;whiteSpace=wrap;html=1;" parent="1" vertex="1">
          <mxGeometry x="920" y="340" width="130" height="30" as="geometry" />
        </mxCell>
        <mxCell id="5nmSyV8fs2mh4pmYHU-O-219" style="rounded=0;orthogonalLoop=1;jettySize=auto;html=1;entryX=1;entryY=0.25;entryDx=0;entryDy=0;" parent="1" source="5nmSyV8fs2mh4pmYHU-O-215" target="5nmSyV8fs2mh4pmYHU-O-129" edge="1">
          <mxGeometry relative="1" as="geometry" />
        </mxCell>
        <mxCell id="5nmSyV8fs2mh4pmYHU-O-215" value="fk_USER" style="ellipse;whiteSpace=wrap;html=1;" parent="1" vertex="1">
          <mxGeometry x="1250" y="-32" width="110" height="30" as="geometry" />
        </mxCell>
        <mxCell id="5nmSyV8fs2mh4pmYHU-O-221" value="" style="rounded=0;orthogonalLoop=1;jettySize=auto;html=1;entryX=1;entryY=1;entryDx=0;entryDy=0;" parent="1" source="5nmSyV8fs2mh4pmYHU-O-220" target="5nmSyV8fs2mh4pmYHU-O-128" edge="1">
          <mxGeometry relative="1" as="geometry" />
        </mxCell>
        <mxCell id="5nmSyV8fs2mh4pmYHU-O-220" value="CREATED_AT" style="ellipse;whiteSpace=wrap;html=1;" parent="1" vertex="1">
          <mxGeometry x="1310" y="300" width="130" height="30" as="geometry" />
        </mxCell>
        <mxCell id="5nmSyV8fs2mh4pmYHU-O-222" value="DESCRIPCIÓN" style="ellipse;whiteSpace=wrap;html=1;" parent="1" vertex="1">
          <mxGeometry x="880" y="290" width="130" height="30" as="geometry" />
        </mxCell>
        <mxCell id="5nmSyV8fs2mh4pmYHU-O-225" value="TIENE" style="rhombus;whiteSpace=wrap;html=1;" parent="1" vertex="1">
          <mxGeometry x="1060" y="410" width="80" height="80" as="geometry" />
        </mxCell>
        <mxCell id="5nmSyV8fs2mh4pmYHU-O-228" style="edgeStyle=orthogonalEdgeStyle;rounded=0;orthogonalLoop=1;jettySize=auto;html=1;entryX=0.317;entryY=1.057;entryDx=0;entryDy=0;entryPerimeter=0;" parent="1" source="5nmSyV8fs2mh4pmYHU-O-225" target="5nmSyV8fs2mh4pmYHU-O-128" edge="1">
          <mxGeometry relative="1" as="geometry" />
        </mxCell>
        <mxCell id="5nmSyV8fs2mh4pmYHU-O-229" value="1:n" style="text;html=1;align=center;verticalAlign=middle;resizable=0;points=[];autosize=1;strokeColor=none;fillColor=none;" parent="1" vertex="1">
          <mxGeometry x="1140" y="430" width="40" height="30" as="geometry" />
        </mxCell>
        <mxCell id="5nmSyV8fs2mh4pmYHU-O-231" value="" style="rounded=0;orthogonalLoop=1;jettySize=auto;html=1;" parent="1" source="5nmSyV8fs2mh4pmYHU-O-230" target="5nmSyV8fs2mh4pmYHU-O-128" edge="1">
          <mxGeometry relative="1" as="geometry" />
        </mxCell>
        <mxCell id="5nmSyV8fs2mh4pmYHU-O-230" value="fk_ALUMNO_PROFILE" style="ellipse;whiteSpace=wrap;html=1;" parent="1" vertex="1">
          <mxGeometry x="1220" y="248" width="140" height="30" as="geometry" />
        </mxCell>
        <mxCell id="5nmSyV8fs2mh4pmYHU-O-232" value="TIENE" style="rhombus;whiteSpace=wrap;html=1;" parent="1" vertex="1">
          <mxGeometry x="1090" y="103" width="80" height="80" as="geometry" />
        </mxCell>
        <mxCell id="5nmSyV8fs2mh4pmYHU-O-236" value="(1:1)" style="text;html=1;align=center;verticalAlign=middle;resizable=0;points=[];autosize=1;strokeColor=none;fillColor=none;" parent="1" vertex="1">
          <mxGeometry x="1140" y="170" width="50" height="30" as="geometry" />
        </mxCell>
        <mxCell id="5nmSyV8fs2mh4pmYHU-O-237" value="(1:n)" style="text;html=1;align=center;verticalAlign=middle;resizable=0;points=[];autosize=1;strokeColor=none;fillColor=none;" parent="1" vertex="1">
          <mxGeometry x="1145" y="88" width="50" height="30" as="geometry" />
        </mxCell>
        <mxCell id="5nmSyV8fs2mh4pmYHU-O-238" value="n:1" style="text;html=1;align=center;verticalAlign=middle;resizable=0;points=[];autosize=1;strokeColor=none;fillColor=none;" parent="1" vertex="1">
          <mxGeometry x="1170" y="128" width="40" height="30" as="geometry" />
        </mxCell>
        <mxCell id="5nmSyV8fs2mh4pmYHU-O-243" style="edgeStyle=orthogonalEdgeStyle;rounded=0;orthogonalLoop=1;jettySize=auto;html=1;entryX=0.5;entryY=0.833;entryDx=0;entryDy=0;entryPerimeter=0;" parent="1" source="5nmSyV8fs2mh4pmYHU-O-232" target="5nmSyV8fs2mh4pmYHU-O-129" edge="1">
          <mxGeometry relative="1" as="geometry" />
        </mxCell>
        <mxCell id="5nmSyV8fs2mh4pmYHU-O-244" value="fk_TIPO_INCIDENCIA" style="ellipse;whiteSpace=wrap;html=1;" parent="1" vertex="1">
          <mxGeometry x="1250" y="162.5" width="139" height="25" as="geometry" />
        </mxCell>
        <mxCell id="5nmSyV8fs2mh4pmYHU-O-246" style="rounded=0;orthogonalLoop=1;jettySize=auto;html=1;exitX=0.5;exitY=1;exitDx=0;exitDy=0;entryX=1;entryY=0.25;entryDx=0;entryDy=0;" parent="1" source="5nmSyV8fs2mh4pmYHU-O-244" target="5nmSyV8fs2mh4pmYHU-O-128" edge="1">
          <mxGeometry relative="1" as="geometry" />
        </mxCell>
        <mxCell id="5nmSyV8fs2mh4pmYHU-O-249" style="edgeStyle=orthogonalEdgeStyle;rounded=0;orthogonalLoop=1;jettySize=auto;html=1;exitX=0.5;exitY=1;exitDx=0;exitDy=0;entryX=1;entryY=0.75;entryDx=0;entryDy=0;" parent="1" source="5nmSyV8fs2mh4pmYHU-O-247" target="5nmSyV8fs2mh4pmYHU-O-95" edge="1">
          <mxGeometry relative="1" as="geometry" />
        </mxCell>
        <mxCell id="5nmSyV8fs2mh4pmYHU-O-247" value="RESTA PUNTOS" style="rhombus;whiteSpace=wrap;html=1;" parent="1" vertex="1">
          <mxGeometry x="1700" y="200" width="110" height="70" as="geometry" />
        </mxCell>
        <mxCell id="5nmSyV8fs2mh4pmYHU-O-250" value="CREATED_AT" style="ellipse;whiteSpace=wrap;html=1;" parent="1" vertex="1">
          <mxGeometry x="275" y="398" width="110" height="30" as="geometry" />
        </mxCell>
        <mxCell id="5nmSyV8fs2mh4pmYHU-O-251" style="rounded=0;orthogonalLoop=1;jettySize=auto;html=1;entryX=0.15;entryY=-0.017;entryDx=0;entryDy=0;entryPerimeter=0;" parent="1" source="5nmSyV8fs2mh4pmYHU-O-250" target="5nmSyV8fs2mh4pmYHU-O-3" edge="1">
          <mxGeometry relative="1" as="geometry" />
        </mxCell>
        <mxCell id="5nmSyV8fs2mh4pmYHU-O-253" value="" style="rounded=0;orthogonalLoop=1;jettySize=auto;html=1;" parent="1" source="5nmSyV8fs2mh4pmYHU-O-252" target="5nmSyV8fs2mh4pmYHU-O-47" edge="1">
          <mxGeometry relative="1" as="geometry" />
        </mxCell>
        <mxCell id="5nmSyV8fs2mh4pmYHU-O-252" value="MATERIA" style="ellipse;whiteSpace=wrap;html=1;" parent="1" vertex="1">
          <mxGeometry x="755" y="805" width="110" height="25" as="geometry" />
        </mxCell>
        <mxCell id="5nmSyV8fs2mh4pmYHU-O-254" value="(1:1)" style="text;html=1;align=center;verticalAlign=middle;resizable=0;points=[];autosize=1;strokeColor=none;fillColor=none;" parent="1" vertex="1">
          <mxGeometry x="1585" y="198" width="50" height="30" as="geometry" />
        </mxCell>
        <mxCell id="5nmSyV8fs2mh4pmYHU-O-255" value="(1:n)" style="text;html=1;align=center;verticalAlign=middle;resizable=0;points=[];autosize=1;strokeColor=none;fillColor=none;" parent="1" vertex="1">
          <mxGeometry x="1765" y="278" width="50" height="30" as="geometry" />
        </mxCell>
        <mxCell id="5nmSyV8fs2mh4pmYHU-O-256" value="n:1" style="text;html=1;align=center;verticalAlign=middle;resizable=0;points=[];autosize=1;strokeColor=none;fillColor=none;" parent="1" vertex="1">
          <mxGeometry x="1735" y="162.5" width="40" height="30" as="geometry" />
        </mxCell>
        <mxCell id="5nmSyV8fs2mh4pmYHU-O-257" value="fk_CUENTA_PUNTOS" style="ellipse;whiteSpace=wrap;html=1;" parent="1" vertex="1">
          <mxGeometry x="1295" y="340" width="150" height="27" as="geometry" />
        </mxCell>
        <mxCell id="5nmSyV8fs2mh4pmYHU-O-258" style="rounded=0;orthogonalLoop=1;jettySize=auto;html=1;exitX=0;exitY=0;exitDx=0;exitDy=0;entryX=0.75;entryY=1;entryDx=0;entryDy=0;" parent="1" source="5nmSyV8fs2mh4pmYHU-O-257" target="5nmSyV8fs2mh4pmYHU-O-128" edge="1">
          <mxGeometry relative="1" as="geometry" />
        </mxCell>
        <mxCell id="5nmSyV8fs2mh4pmYHU-O-260" value="CREA" style="rhombus;whiteSpace=wrap;html=1;" parent="1" vertex="1">
          <mxGeometry x="490" y="720" width="80" height="80" as="geometry" />
        </mxCell>
        <mxCell id="5nmSyV8fs2mh4pmYHU-O-262" style="edgeStyle=orthogonalEdgeStyle;rounded=0;orthogonalLoop=1;jettySize=auto;html=1;exitX=1;exitY=0.5;exitDx=0;exitDy=0;entryX=0.156;entryY=0.996;entryDx=0;entryDy=0;entryPerimeter=0;" parent="1" source="5nmSyV8fs2mh4pmYHU-O-260" target="5nmSyV8fs2mh4pmYHU-O-81" edge="1">
          <mxGeometry relative="1" as="geometry" />
        </mxCell>
        <mxCell id="5nmSyV8fs2mh4pmYHU-O-263" value="(1:n)" style="text;html=1;align=center;verticalAlign=middle;resizable=0;points=[];autosize=1;strokeColor=none;fillColor=none;" parent="1" vertex="1">
          <mxGeometry x="450" y="558" width="50" height="30" as="geometry" />
        </mxCell>
        <mxCell id="5nmSyV8fs2mh4pmYHU-O-264" value="(1:1)" style="text;html=1;align=center;verticalAlign=middle;resizable=0;points=[];autosize=1;strokeColor=none;fillColor=none;" parent="1" vertex="1">
          <mxGeometry x="1295" y="688" width="50" height="30" as="geometry" />
        </mxCell>
        <mxCell id="5nmSyV8fs2mh4pmYHU-O-265" value="1:n" style="text;html=1;align=center;verticalAlign=middle;resizable=0;points=[];autosize=1;strokeColor=none;fillColor=none;" parent="1" vertex="1">
          <mxGeometry x="510" y="700" width="40" height="30" as="geometry" />
        </mxCell>
        <mxCell id="5nmSyV8fs2mh4pmYHU-O-269" style="edgeStyle=orthogonalEdgeStyle;rounded=0;orthogonalLoop=1;jettySize=auto;html=1;exitX=0.5;exitY=1;exitDx=0;exitDy=0;entryX=0.25;entryY=0;entryDx=0;entryDy=0;" parent="1" source="5nmSyV8fs2mh4pmYHU-O-267" target="5nmSyV8fs2mh4pmYHU-O-81" edge="1">
          <mxGeometry relative="1" as="geometry" />
        </mxCell>
        <mxCell id="5nmSyV8fs2mh4pmYHU-O-267" value="fk_user" style="ellipse;whiteSpace=wrap;html=1;" parent="1" vertex="1">
          <mxGeometry x="1320" y="550" width="101" height="20" as="geometry" />
        </mxCell>
        <mxCell id="h6sf5w2JTI2KtMpbFyoY-2" style="rounded=0;orthogonalLoop=1;jettySize=auto;html=1;exitX=1;exitY=0;exitDx=0;exitDy=0;entryX=0.001;entryY=0.846;entryDx=0;entryDy=0;entryPerimeter=0;" parent="1" source="5nmSyV8fs2mh4pmYHU-O-222" target="5nmSyV8fs2mh4pmYHU-O-128" edge="1">
          <mxGeometry relative="1" as="geometry" />
        </mxCell>
        <mxCell id="h6sf5w2JTI2KtMpbFyoY-5" style="rounded=0;orthogonalLoop=1;jettySize=auto;html=1;exitX=1;exitY=0.5;exitDx=0;exitDy=0;entryX=0;entryY=0.25;entryDx=0;entryDy=0;" parent="1" source="h6sf5w2JTI2KtMpbFyoY-4" target="5nmSyV8fs2mh4pmYHU-O-46" edge="1">
          <mxGeometry relative="1" as="geometry" />
        </mxCell>
        <mxCell id="h6sf5w2JTI2KtMpbFyoY-4" value="CREATED_AT" style="ellipse;whiteSpace=wrap;html=1;" parent="1" vertex="1">
          <mxGeometry x="550" y="630" width="100" height="30" as="geometry" />
        </mxCell>
        <mxCell id="h6sf5w2JTI2KtMpbFyoY-8" style="rounded=0;orthogonalLoop=1;jettySize=auto;html=1;exitX=0;exitY=0.5;exitDx=0;exitDy=0;entryX=1;entryY=0.75;entryDx=0;entryDy=0;" parent="1" source="h6sf5w2JTI2KtMpbFyoY-7" target="5nmSyV8fs2mh4pmYHU-O-7" edge="1">
          <mxGeometry relative="1" as="geometry" />
        </mxCell>
        <mxCell id="h6sf5w2JTI2KtMpbFyoY-7" value="CREATED AT" style="ellipse;whiteSpace=wrap;html=1;" parent="1" vertex="1">
          <mxGeometry x="860" y="540" width="110" height="30" as="geometry" />
        </mxCell>
        <mxCell id="h6sf5w2JTI2KtMpbFyoY-13" style="rounded=0;orthogonalLoop=1;jettySize=auto;html=1;exitX=0.5;exitY=0;exitDx=0;exitDy=0;entryX=0.25;entryY=1;entryDx=0;entryDy=0;" parent="1" source="h6sf5w2JTI2KtMpbFyoY-11" target="5nmSyV8fs2mh4pmYHU-O-95" edge="1">
          <mxGeometry relative="1" as="geometry" />
        </mxCell>
        <mxCell id="h6sf5w2JTI2KtMpbFyoY-11" value="CREATED_AT" style="ellipse;whiteSpace=wrap;html=1;" parent="1" vertex="1">
          <mxGeometry x="1360" y="975" width="90" height="30" as="geometry" />
        </mxCell>
        <mxCell id="h6sf5w2JTI2KtMpbFyoY-15" value="PERMISOS" style="whiteSpace=wrap;html=1;" parent="1" vertex="1">
          <mxGeometry x="1140" y="1230" width="120" height="60" as="geometry" />
        </mxCell>
        <mxCell id="h6sf5w2JTI2KtMpbFyoY-33" style="rounded=0;orthogonalLoop=1;jettySize=auto;html=1;exitX=0;exitY=0.5;exitDx=0;exitDy=0;entryX=1;entryY=0.25;entryDx=0;entryDy=0;" parent="1" source="h6sf5w2JTI2KtMpbFyoY-16" target="h6sf5w2JTI2KtMpbFyoY-15" edge="1">
          <mxGeometry relative="1" as="geometry" />
        </mxCell>
        <mxCell id="h6sf5w2JTI2KtMpbFyoY-16" value="CREATE?" style="ellipse;whiteSpace=wrap;html=1;" parent="1" vertex="1">
          <mxGeometry x="1330" y="1230" width="80" height="40" as="geometry" />
        </mxCell>
        <mxCell id="h6sf5w2JTI2KtMpbFyoY-32" style="rounded=0;orthogonalLoop=1;jettySize=auto;html=1;exitX=0;exitY=0;exitDx=0;exitDy=0;entryX=0.982;entryY=0.898;entryDx=0;entryDy=0;entryPerimeter=0;" parent="1" source="h6sf5w2JTI2KtMpbFyoY-17" target="h6sf5w2JTI2KtMpbFyoY-15" edge="1">
          <mxGeometry relative="1" as="geometry" />
        </mxCell>
        <mxCell id="h6sf5w2JTI2KtMpbFyoY-17" value="UPDATE?" style="ellipse;whiteSpace=wrap;html=1;" parent="1" vertex="1">
          <mxGeometry x="1299" y="1300" width="90" height="50" as="geometry" />
        </mxCell>
        <mxCell id="h6sf5w2JTI2KtMpbFyoY-31" style="rounded=0;orthogonalLoop=1;jettySize=auto;html=1;exitX=0.5;exitY=0;exitDx=0;exitDy=0;entryX=0.75;entryY=1;entryDx=0;entryDy=0;" parent="1" source="h6sf5w2JTI2KtMpbFyoY-18" target="h6sf5w2JTI2KtMpbFyoY-15" edge="1">
          <mxGeometry relative="1" as="geometry" />
        </mxCell>
        <mxCell id="h6sf5w2JTI2KtMpbFyoY-18" value="DELETE?" style="ellipse;whiteSpace=wrap;html=1;" parent="1" vertex="1">
          <mxGeometry x="1180" y="1350" width="90" height="40" as="geometry" />
        </mxCell>
        <mxCell id="h6sf5w2JTI2KtMpbFyoY-21" style="edgeStyle=orthogonalEdgeStyle;rounded=0;orthogonalLoop=1;jettySize=auto;html=1;exitX=1;exitY=0.5;exitDx=0;exitDy=0;entryX=0;entryY=0.5;entryDx=0;entryDy=0;" parent="1" source="h6sf5w2JTI2KtMpbFyoY-19" target="h6sf5w2JTI2KtMpbFyoY-15" edge="1">
          <mxGeometry relative="1" as="geometry" />
        </mxCell>
        <mxCell id="h6sf5w2JTI2KtMpbFyoY-19" value="TIENE" style="rhombus;whiteSpace=wrap;html=1;" parent="1" vertex="1">
          <mxGeometry x="730" y="1200" width="80" height="80" as="geometry" />
        </mxCell>
        <mxCell id="h6sf5w2JTI2KtMpbFyoY-22" value="1:1" style="text;html=1;align=center;verticalAlign=middle;resizable=0;points=[];autosize=1;strokeColor=none;fillColor=none;" parent="1" vertex="1">
          <mxGeometry x="787" y="1190" width="40" height="30" as="geometry" />
        </mxCell>
        <mxCell id="h6sf5w2JTI2KtMpbFyoY-25" style="edgeStyle=orthogonalEdgeStyle;rounded=0;orthogonalLoop=1;jettySize=auto;html=1;exitX=0.5;exitY=1;exitDx=0;exitDy=0;entryX=0.5;entryY=0;entryDx=0;entryDy=0;" parent="1" source="h6sf5w2JTI2KtMpbFyoY-23" target="h6sf5w2JTI2KtMpbFyoY-15" edge="1">
          <mxGeometry relative="1" as="geometry" />
        </mxCell>
        <mxCell id="h6sf5w2JTI2KtMpbFyoY-23" value="TIENE" style="rhombus;whiteSpace=wrap;html=1;" parent="1" vertex="1">
          <mxGeometry x="880" y="1010" width="80" height="80" as="geometry" />
        </mxCell>
        <mxCell id="h6sf5w2JTI2KtMpbFyoY-26" value="1:1" style="text;html=1;align=center;verticalAlign=middle;resizable=0;points=[];autosize=1;strokeColor=none;fillColor=none;" parent="1" vertex="1">
          <mxGeometry x="900" y="975" width="40" height="30" as="geometry" />
        </mxCell>
        <mxCell id="h6sf5w2JTI2KtMpbFyoY-29" style="edgeStyle=orthogonalEdgeStyle;rounded=0;orthogonalLoop=1;jettySize=auto;html=1;exitX=0.5;exitY=1;exitDx=0;exitDy=0;entryX=0.25;entryY=0;entryDx=0;entryDy=0;" parent="1" source="h6sf5w2JTI2KtMpbFyoY-27" target="h6sf5w2JTI2KtMpbFyoY-15" edge="1">
          <mxGeometry relative="1" as="geometry" />
        </mxCell>
        <mxCell id="h6sf5w2JTI2KtMpbFyoY-27" value="TIENE" style="rhombus;whiteSpace=wrap;html=1;" parent="1" vertex="1">
          <mxGeometry x="990" y="890" width="80" height="80" as="geometry" />
        </mxCell>
        <mxCell id="h6sf5w2JTI2KtMpbFyoY-30" value="1:1" style="text;html=1;align=center;verticalAlign=middle;resizable=0;points=[];autosize=1;strokeColor=none;fillColor=none;" parent="1" vertex="1">
          <mxGeometry x="1025" y="868" width="40" height="30" as="geometry" />
        </mxCell>
        <mxCell id="h6sf5w2JTI2KtMpbFyoY-37" style="rounded=0;orthogonalLoop=1;jettySize=auto;html=1;entryX=0.75;entryY=0;entryDx=0;entryDy=0;" parent="1" source="h6sf5w2JTI2KtMpbFyoY-36" target="h6sf5w2JTI2KtMpbFyoY-15" edge="1">
          <mxGeometry relative="1" as="geometry" />
        </mxCell>
        <mxCell id="h6sf5w2JTI2KtMpbFyoY-36" value="CREATED AT" style="ellipse;whiteSpace=wrap;html=1;" parent="1" vertex="1">
          <mxGeometry x="1320" y="1169" width="90" height="40" as="geometry" />
        </mxCell>
        <mxCell id="h6sf5w2JTI2KtMpbFyoY-46" style="edgeStyle=orthogonalEdgeStyle;rounded=0;orthogonalLoop=1;jettySize=auto;html=1;entryX=0;entryY=0.5;entryDx=0;entryDy=0;" parent="1" source="h6sf5w2JTI2KtMpbFyoY-40" target="5nmSyV8fs2mh4pmYHU-O-3" edge="1">
          <mxGeometry relative="1" as="geometry" />
        </mxCell>
        <mxCell id="h6sf5w2JTI2KtMpbFyoY-40" value="ASOCIADO" style="rhombus;whiteSpace=wrap;html=1;" parent="1" vertex="1">
          <mxGeometry x="360" y="630" width="80" height="80" as="geometry" />
        </mxCell>
        <mxCell id="h6sf5w2JTI2KtMpbFyoY-45" value="1:1" style="text;html=1;align=center;verticalAlign=middle;resizable=0;points=[];autosize=1;strokeColor=none;fillColor=none;" parent="1" vertex="1">
          <mxGeometry x="360" y="613.5" width="40" height="30" as="geometry" />
        </mxCell>
        <mxCell id="h6sf5w2JTI2KtMpbFyoY-53" style="edgeStyle=orthogonalEdgeStyle;rounded=0;orthogonalLoop=1;jettySize=auto;html=1;entryX=0;entryY=0.5;entryDx=0;entryDy=0;" parent="1" source="h6sf5w2JTI2KtMpbFyoY-47" target="5nmSyV8fs2mh4pmYHU-O-3" edge="1">
          <mxGeometry relative="1" as="geometry" />
        </mxCell>
        <mxCell id="h6sf5w2JTI2KtMpbFyoY-47" value="ASOCIADO" style="rhombus;whiteSpace=wrap;html=1;" parent="1" vertex="1">
          <mxGeometry x="490" y="860" width="80" height="80" as="geometry" />
        </mxCell>
        <mxCell id="h6sf5w2JTI2KtMpbFyoY-51" style="edgeStyle=orthogonalEdgeStyle;rounded=0;orthogonalLoop=1;jettySize=auto;html=1;entryX=0;entryY=0.5;entryDx=0;entryDy=0;" parent="1" source="h6sf5w2JTI2KtMpbFyoY-49" target="5nmSyV8fs2mh4pmYHU-O-3" edge="1">
          <mxGeometry relative="1" as="geometry" />
        </mxCell>
        <mxCell id="h6sf5w2JTI2KtMpbFyoY-49" value="ASOCIADO" style="rhombus;whiteSpace=wrap;html=1;" parent="1" vertex="1">
          <mxGeometry x="490" y="980" width="80" height="80" as="geometry" />
        </mxCell>
        <mxCell id="h6sf5w2JTI2KtMpbFyoY-54" value="1:1" style="text;html=1;align=center;verticalAlign=middle;resizable=0;points=[];autosize=1;strokeColor=none;fillColor=none;" parent="1" vertex="1">
          <mxGeometry x="510" y="830" width="40" height="30" as="geometry" />
        </mxCell>
        <mxCell id="h6sf5w2JTI2KtMpbFyoY-55" value="1:1" style="text;html=1;align=center;verticalAlign=middle;resizable=0;points=[];autosize=1;strokeColor=none;fillColor=none;" parent="1" vertex="1">
          <mxGeometry x="510" y="948" width="40" height="30" as="geometry" />
        </mxCell>
        <mxCell id="h6sf5w2JTI2KtMpbFyoY-57" style="rounded=0;orthogonalLoop=1;jettySize=auto;html=1;entryX=0.25;entryY=1;entryDx=0;entryDy=0;" parent="1" source="h6sf5w2JTI2KtMpbFyoY-56" target="5nmSyV8fs2mh4pmYHU-O-74" edge="1">
          <mxGeometry relative="1" as="geometry" />
        </mxCell>
        <mxCell id="h6sf5w2JTI2KtMpbFyoY-56" value="fk_PERMISOS" style="ellipse;whiteSpace=wrap;html=1;" parent="1" vertex="1">
          <mxGeometry x="600" y="1070" width="100" height="40" as="geometry" />
        </mxCell>
        <mxCell id="h6sf5w2JTI2KtMpbFyoY-58" value="fk_PERMISOS" style="ellipse;whiteSpace=wrap;html=1;" parent="1" vertex="1">
          <mxGeometry x="665" y="780" width="100" height="30" as="geometry" />
        </mxCell>
        <mxCell id="h6sf5w2JTI2KtMpbFyoY-60" style="rounded=0;orthogonalLoop=1;jettySize=auto;html=1;" parent="1" source="h6sf5w2JTI2KtMpbFyoY-58" edge="1">
          <mxGeometry relative="1" as="geometry">
            <mxPoint x="760" y="867" as="targetPoint" />
          </mxGeometry>
        </mxCell>
        <mxCell id="h6sf5w2JTI2KtMpbFyoY-62" style="rounded=0;orthogonalLoop=1;jettySize=auto;html=1;exitX=1;exitY=0;exitDx=0;exitDy=0;entryX=0.25;entryY=1;entryDx=0;entryDy=0;" parent="1" source="h6sf5w2JTI2KtMpbFyoY-61" target="5nmSyV8fs2mh4pmYHU-O-46" edge="1">
          <mxGeometry relative="1" as="geometry" />
        </mxCell>
        <mxCell id="h6sf5w2JTI2KtMpbFyoY-61" value="fk_PERMISOS" style="ellipse;whiteSpace=wrap;html=1;" parent="1" vertex="1">
          <mxGeometry x="630" y="710" width="100" height="40" as="geometry" />
        </mxCell>
        <mxCell id="PDGs9ns66K2a2faZmoEc-4" style="rounded=0;orthogonalLoop=1;jettySize=auto;html=1;exitX=0;exitY=0;exitDx=0;exitDy=0;entryX=1;entryY=0.75;entryDx=0;entryDy=0;" parent="1" source="PDGs9ns66K2a2faZmoEc-1" target="5nmSyV8fs2mh4pmYHU-O-46" edge="1">
          <mxGeometry relative="1" as="geometry" />
        </mxCell>
        <mxCell id="PDGs9ns66K2a2faZmoEc-1" value="fk_GRUPO" style="ellipse;whiteSpace=wrap;html=1;" parent="1" vertex="1">
          <mxGeometry x="845" y="700" width="110" height="30" as="geometry" />
        </mxCell>
        <mxCell id="PDGs9ns66K2a2faZmoEc-5" value="fk_CUENTA_PUNTOS" style="ellipse;whiteSpace=wrap;html=1;" parent="1" vertex="1">
          <mxGeometry x="1490" y="658" width="140" height="32" as="geometry" />
        </mxCell>
        <mxCell id="PDGs9ns66K2a2faZmoEc-7" style="rounded=0;orthogonalLoop=1;jettySize=auto;html=1;exitX=0;exitY=0;exitDx=0;exitDy=0;entryX=1.017;entryY=0.4;entryDx=0;entryDy=0;entryPerimeter=0;" parent="1" source="PDGs9ns66K2a2faZmoEc-5" target="5nmSyV8fs2mh4pmYHU-O-81" edge="1">
          <mxGeometry relative="1" as="geometry" />
        </mxCell>
        <mxCell id="HAJWOKTtWnyAJJbQ7NxA-3" style="rounded=0;orthogonalLoop=1;jettySize=auto;html=1;entryX=0;entryY=0.75;entryDx=0;entryDy=0;" edge="1" parent="1" source="HAJWOKTtWnyAJJbQ7NxA-1" target="5nmSyV8fs2mh4pmYHU-O-81">
          <mxGeometry relative="1" as="geometry" />
        </mxCell>
        <mxCell id="HAJWOKTtWnyAJJbQ7NxA-1" value="TIENE" style="rhombus;whiteSpace=wrap;html=1;" vertex="1" parent="1">
          <mxGeometry x="900" y="848" width="80" height="80" as="geometry" />
        </mxCell>
        <mxCell id="HAJWOKTtWnyAJJbQ7NxA-5" style="rounded=0;orthogonalLoop=1;jettySize=auto;html=1;entryX=0;entryY=0.25;entryDx=0;entryDy=0;" edge="1" parent="1" source="HAJWOKTtWnyAJJbQ7NxA-4" target="5nmSyV8fs2mh4pmYHU-O-47">
          <mxGeometry relative="1" as="geometry" />
        </mxCell>
        <mxCell id="HAJWOKTtWnyAJJbQ7NxA-4" value="fk_GRUPO" style="ellipse;whiteSpace=wrap;html=1;" vertex="1" parent="1">
          <mxGeometry x="585" y="850" width="80" height="20" as="geometry" />
        </mxCell>
        <mxCell id="HAJWOKTtWnyAJJbQ7NxA-6" value="1:1" style="text;html=1;align=center;verticalAlign=middle;resizable=0;points=[];autosize=1;strokeColor=none;fillColor=none;" vertex="1" parent="1">
          <mxGeometry x="930" y="758" width="40" height="30" as="geometry" />
        </mxCell>
        <mxCell id="HAJWOKTtWnyAJJbQ7NxA-13" value="" style="edgeStyle=orthogonalEdgeStyle;rounded=0;orthogonalLoop=1;jettySize=auto;html=1;" edge="1" parent="1" source="HAJWOKTtWnyAJJbQ7NxA-7" target="HAJWOKTtWnyAJJbQ7NxA-12">
          <mxGeometry relative="1" as="geometry" />
        </mxCell>
        <mxCell id="HAJWOKTtWnyAJJbQ7NxA-7" value="RETRASOS" style="whiteSpace=wrap;html=1;" vertex="1" parent="1">
          <mxGeometry x="1345" y="435" width="120" height="60" as="geometry" />
        </mxCell>
        <mxCell id="HAJWOKTtWnyAJJbQ7NxA-9" value="" style="edgeStyle=orthogonalEdgeStyle;rounded=0;orthogonalLoop=1;jettySize=auto;html=1;" edge="1" parent="1" source="HAJWOKTtWnyAJJbQ7NxA-8" target="HAJWOKTtWnyAJJbQ7NxA-7">
          <mxGeometry relative="1" as="geometry" />
        </mxCell>
        <mxCell id="HAJWOKTtWnyAJJbQ7NxA-8" value="CREATED AT" style="ellipse;whiteSpace=wrap;html=1;" vertex="1" parent="1">
          <mxGeometry x="1530" y="450" width="90" height="30" as="geometry" />
        </mxCell>
        <mxCell id="HAJWOKTtWnyAJJbQ7NxA-11" style="rounded=0;orthogonalLoop=1;jettySize=auto;html=1;entryX=1;entryY=0.25;entryDx=0;entryDy=0;" edge="1" parent="1" source="HAJWOKTtWnyAJJbQ7NxA-10" target="HAJWOKTtWnyAJJbQ7NxA-7">
          <mxGeometry relative="1" as="geometry" />
        </mxCell>
        <mxCell id="HAJWOKTtWnyAJJbQ7NxA-10" value="fk_ALUMNO_PROFILE" style="ellipse;whiteSpace=wrap;html=1;" vertex="1" parent="1">
          <mxGeometry x="1514" y="410" width="140" height="40" as="geometry" />
        </mxCell>
        <mxCell id="HAJWOKTtWnyAJJbQ7NxA-14" style="rounded=0;orthogonalLoop=1;jettySize=auto;html=1;exitX=0;exitY=0.5;exitDx=0;exitDy=0;entryX=1;entryY=0;entryDx=0;entryDy=0;" edge="1" parent="1" source="HAJWOKTtWnyAJJbQ7NxA-12" target="5nmSyV8fs2mh4pmYHU-O-46">
          <mxGeometry relative="1" as="geometry" />
        </mxCell>
        <mxCell id="HAJWOKTtWnyAJJbQ7NxA-12" value="TIENE" style="rhombus;whiteSpace=wrap;html=1;" vertex="1" parent="1">
          <mxGeometry x="1201" y="530" width="80" height="80" as="geometry" />
        </mxCell>
        <mxCell id="HAJWOKTtWnyAJJbQ7NxA-15" value="1:n" style="text;html=1;align=center;verticalAlign=middle;resizable=0;points=[];autosize=1;strokeColor=none;fillColor=none;" vertex="1" parent="1">
          <mxGeometry x="1180" y="520" width="40" height="30" as="geometry" />
        </mxCell>
        <mxCell id="HAJWOKTtWnyAJJbQ7NxA-22" style="rounded=0;orthogonalLoop=1;jettySize=auto;html=1;exitX=1;exitY=1;exitDx=0;exitDy=0;" edge="1" parent="1" source="HAJWOKTtWnyAJJbQ7NxA-18" target="5nmSyV8fs2mh4pmYHU-O-46">
          <mxGeometry relative="1" as="geometry" />
        </mxCell>
        <mxCell id="HAJWOKTtWnyAJJbQ7NxA-18" value="fecha_matriculacion" style="ellipse;whiteSpace=wrap;html=1;" vertex="1" parent="1">
          <mxGeometry x="475" y="564" width="150" height="40" as="geometry" />
        </mxCell>
        <mxCell id="HAJWOKTtWnyAJJbQ7NxA-26" style="rounded=0;orthogonalLoop=1;jettySize=auto;html=1;exitX=1;exitY=1;exitDx=0;exitDy=0;entryX=0.25;entryY=0;entryDx=0;entryDy=0;" edge="1" parent="1" source="HAJWOKTtWnyAJJbQ7NxA-25" target="5nmSyV8fs2mh4pmYHU-O-129">
          <mxGeometry relative="1" as="geometry" />
        </mxCell>
        <mxCell id="HAJWOKTtWnyAJJbQ7NxA-25" value="grado" style="ellipse;whiteSpace=wrap;html=1;" vertex="1" parent="1">
          <mxGeometry x="980" y="-30" width="90" height="40" as="geometry" />
        </mxCell>
        <mxCell id="HAJWOKTtWnyAJJbQ7NxA-36" style="edgeStyle=orthogonalEdgeStyle;rounded=0;orthogonalLoop=1;jettySize=auto;html=1;entryX=0.5;entryY=1;entryDx=0;entryDy=0;" edge="1" parent="1" source="HAJWOKTtWnyAJJbQ7NxA-34" target="HAJWOKTtWnyAJJbQ7NxA-35">
          <mxGeometry relative="1" as="geometry" />
        </mxCell>
        <mxCell id="HAJWOKTtWnyAJJbQ7NxA-34" value="TABLAS" style="whiteSpace=wrap;html=1;" vertex="1" parent="1">
          <mxGeometry x="725" y="1410" width="120" height="60" as="geometry" />
        </mxCell>
        <mxCell id="HAJWOKTtWnyAJJbQ7NxA-37" style="edgeStyle=orthogonalEdgeStyle;rounded=0;orthogonalLoop=1;jettySize=auto;html=1;exitX=0.5;exitY=0;exitDx=0;exitDy=0;entryX=0.25;entryY=1;entryDx=0;entryDy=0;" edge="1" parent="1" source="HAJWOKTtWnyAJJbQ7NxA-35" target="h6sf5w2JTI2KtMpbFyoY-15">
          <mxGeometry relative="1" as="geometry" />
        </mxCell>
        <mxCell id="HAJWOKTtWnyAJJbQ7NxA-35" value="ACTÚA" style="rhombus;whiteSpace=wrap;html=1;" vertex="1" parent="1">
          <mxGeometry x="970" y="1320" width="80" height="80" as="geometry" />
        </mxCell>
        <mxCell id="HAJWOKTtWnyAJJbQ7NxA-38" value="1:1" style="text;html=1;align=center;verticalAlign=middle;resizable=0;points=[];autosize=1;strokeColor=none;fillColor=none;" vertex="1" parent="1">
          <mxGeometry x="955" y="1310" width="40" height="30" as="geometry" />
        </mxCell>
        <mxCell id="HAJWOKTtWnyAJJbQ7NxA-40" value="" style="edgeStyle=orthogonalEdgeStyle;rounded=0;orthogonalLoop=1;jettySize=auto;html=1;" edge="1" parent="1" source="HAJWOKTtWnyAJJbQ7NxA-39" target="HAJWOKTtWnyAJJbQ7NxA-34">
          <mxGeometry relative="1" as="geometry" />
        </mxCell>
        <mxCell id="HAJWOKTtWnyAJJbQ7NxA-39" value="INCIDENCIA?" style="ellipse;whiteSpace=wrap;html=1;" vertex="1" parent="1">
          <mxGeometry x="737.5" y="1540" width="95" height="30" as="geometry" />
        </mxCell>
        <mxCell id="HAJWOKTtWnyAJJbQ7NxA-42" value="" style="edgeStyle=orthogonalEdgeStyle;rounded=0;orthogonalLoop=1;jettySize=auto;html=1;" edge="1" parent="1" source="HAJWOKTtWnyAJJbQ7NxA-41" target="HAJWOKTtWnyAJJbQ7NxA-34">
          <mxGeometry relative="1" as="geometry" />
        </mxCell>
        <mxCell id="HAJWOKTtWnyAJJbQ7NxA-41" value="TIPO_INCIDENCIA?" style="ellipse;whiteSpace=wrap;html=1;" vertex="1" parent="1">
          <mxGeometry x="520" y="1425" width="145" height="45" as="geometry" />
        </mxCell>
      </root>
    </mxGraphModel>
  </diagram>
</mxfile>
